<?xml version="1.0" encoding="utf-8"?>
<!-- Generator: Adobe Illustrator 24.0.1, SVG Export Plug-In . SVG Version: 6.00 Build 0)  -->
<svg version="1.1" id="Layer_1" xmlns="http://www.w3.org/2000/svg" xmlns:xlink="http://www.w3.org/1999/xlink" x="0px" y="0px"
	 viewBox="0 0 170.08 170.08" style="enable-background:new 0 0 170.08 170.08;" xml:space="preserve">
<style type="text/css">
	.st0{fill:#FFFFFF;}
</style>
<g>
	<g>
		<path class="st0" d="M11.58,78.45c1.62-18.26,9.99-35.19,23.57-47.69C48.8,18.2,66.52,11.28,85.04,11.28s36.24,6.92,49.9,19.49
			c13.57,12.49,21.94,29.43,23.57,47.69l0.08,0.91h9.22l-0.09-1.08c-1.67-20.68-11.03-39.88-26.33-54.07
			C125.99,9.94,105.98,2.09,85.04,2.09S44.08,9.94,28.69,24.21C13.39,38.4,4.04,57.6,2.36,78.28l-0.09,1.08h9.22L11.58,78.45z"/>
		<path class="st0" d="M158.5,91.62c-1.62,18.26-9.99,35.19-23.57,47.69c-13.66,12.57-31.38,19.49-49.9,19.49
			s-36.24-6.92-49.9-19.49c-13.57-12.49-21.94-29.43-23.57-47.69l-0.08-0.91H2.27l0.09,1.08c1.67,20.68,11.03,39.88,26.33,54.07
			c15.39,14.27,35.4,22.13,56.35,22.13c20.94,0,40.96-7.86,56.35-22.13c15.31-14.19,24.66-33.39,26.33-54.07l0.09-1.08h-9.22
			L158.5,91.62z"/>
	</g>
	<g>
		<path class="st0" d="M56.78,84.71c2.95-0.96,3.97-2.94,3.97-7.76c0-6.14-1.59-8.27-6.39-8.67c-1.32-0.1-1.32-0.1-8.29-0.15H24.94
			v33.82H46.1c9.88-0.05,10.36-0.1,12.04-0.76c2.6-1.01,3.7-3.5,3.7-8.32C61.85,87.45,60.66,85.47,56.78,84.71z M33.45,76.09h12.61
			c4.06,0.05,4.19,0.05,4.67,0.15c0.93,0.25,1.32,1.01,1.32,2.43c0,1.22-0.31,2.08-0.97,2.38c-0.57,0.3-1.85,0.41-5.03,0.41H33.45
			V76.09z M52.1,93.43c-0.66,0.35-0.66,0.35-6,0.41H33.45v-5.63H46.1c5.2,0.05,5.2,0.05,5.64,0.15c1.01,0.25,1.41,0.96,1.41,2.54
			C53.16,92.32,52.85,93.08,52.1,93.43z"/>
		<path class="st0" d="M84.23,89.53h11.77v0.96c0,3.75-0.26,3.85-10.72,3.85l-5.25-0.1c-2.51-0.1-3.31-0.25-4.06-0.96
			c-0.97-0.91-1.23-2.64-1.23-8.37c0-8.77,0.04-8.82,10.63-8.82c6.7,0,8.78,0.2,9.66,0.91c0.57,0.46,0.66,0.86,0.71,2.84h8.95
			c-0.04-4.97-0.4-7.05-1.63-8.72c-1.94-2.69-6-3.5-16.93-3.5c-19.05,0-20.33,1.06-20.33,16.89c0,11.1,0.48,13.59,3.09,15.57
			c2.47,1.93,5.6,2.38,15.7,2.38c7.98,0,11.07-0.2,14.07-0.91c3.53-0.81,5.42-3.14,5.78-7.1c0.13-1.62,0.31-7.4,0.31-10.75v-0.91
			H84.23V89.53z"/>
		<path class="st0" d="M142.36,82.83c-1.9-1.37-3.79-1.62-13.49-1.98c-6.22-0.2-8.64-0.36-9.44-0.61c-0.93-0.25-1.32-0.91-1.32-2.18
			c0-2.48,0.62-2.69,8.2-2.69c6.35,0,7.45,0.1,8.2,0.61c0.66,0.46,0.79,0.91,0.88,2.79h8.64c0.04-0.66,0.04-1.37,0.04-1.57
			c0-4.01-0.71-6.14-2.47-7.5c-2.07-1.62-5.16-2.08-13.71-2.08c-7.06,0-11.11,0.2-12.83,0.61c-4.06,1.01-5.64,3.9-5.64,10.34
			c0,7.45,2.03,9.58,9.3,9.84l2.38,0.1l4.76,0.25l7.06,0.3c2.87,0.05,3.53,0.56,3.53,2.59c0,2.99,0,2.99-9.61,2.99
			c-6.31,0-7.28-0.1-8.11-0.71c-0.71-0.51-0.88-1.17-0.88-3.19h-8.69v1.62c0,4.66,0.66,6.64,2.69,8.11
			c2.07,1.52,5.64,1.98,14.77,1.98c8.78,0,12.48-0.25,14.24-1.01c3.04-1.32,4.28-4.21,4.28-10.09
			C145.14,86.64,144.39,84.35,142.36,82.83z"/>
	</g>
</g>
</svg>
